<svg xmlns="http://www.w3.org/2000/svg" x="0px" y="0px"
width="50" height="50"
viewBox="0 0 172 172"
style=" fill:#000000;"><g fill="none" fill-rule="nonzero" stroke="none" stroke-width="1" stroke-linecap="butt" stroke-linejoin="miter" stroke-miterlimit="10" stroke-dasharray="" stroke-dashoffset="0" font-family="none" font-weight="none" font-size="none" text-anchor="none" style="mix-blend-mode: normal"><path d="M0,172v-172h172v172z" fill="none"></path><g fill="#000000"><path d="M99.76,2.795c-24.76531,0 -50.14875,7.55188 -68.9075,31.4975c-18.75875,23.94563 -30.8525,63.65344 -30.8525,127.3875c-0.01344,1.00781 0.41656,1.97531 1.19594,2.64719c0.76594,0.65844 1.77375,0.95406 2.78156,0.79281c0,0 19.96813,-3.44 57.9425,-3.44c0.06719,0 0.14781,0 0.215,0c6.69188,6.22156 14.55281,10.32 23.865,10.32c9.32563,0 17.83156,-4.03125 25.155,-10.32c0.04031,0 0.06719,0 0.1075,0c0.17469,0.01344 0.36281,0.01344 0.5375,0c37.28906,0 56.115,3.44 56.115,3.44c1.02125,0.18813 2.06938,-0.08062 2.86219,-0.7525c0.79281,-0.65844 1.23625,-1.65281 1.22281,-2.6875c0,-17.05219 -1.505,-29.06531 -3.01,-36.8725c-1.08844,-5.63031 -2.02906,-8.46562 -2.58,-9.9975c1.34375,-2.44562 2.15,-5.20031 2.15,-8.17v-10.32c0,-5.54969 -2.75469,-10.49469 -6.88,-13.6525c-0.18812,-19.0275 -5.87219,-36.06625 -15.91,-48.4825c-9.66156,-11.94594 -23.58281,-19.32312 -39.8825,-20.1025l-2.795,-8.9225c-0.47031,-1.43781 -1.8275,-2.39187 -3.3325,-2.365zM97.2875,9.89l2.58,8.385c0.47031,1.43781 1.8275,2.39188 3.3325,2.365c15.50688,0 28.13813,6.65156 37.195,17.845c8.34469,10.32 13.53156,24.63094 14.2975,40.9575c-1.08844,-0.215 -2.19031,-0.3225 -3.3325,-0.3225h-6.88c-0.1075,0 -0.215,0 -0.3225,0c-1.77375,0.16125 -3.13094,1.65281 -3.1175,3.44v6.235c-1.81406,-0.87344 -3.57437,-1.26312 -4.8375,-1.3975c-4.12531,-5.16 -21.31187,-26.84812 -29.5625,-47.8375c-0.68531,-1.37062 -1.72,-2.39187 -3.44,-2.0425c-1.37062,0 -2.76812,0.99438 -3.1175,2.365c-3.44,12.38938 -32.00812,48.54969 -61.5975,49.235c-1.72,-0.34937 -5.77812,-1.03469 -9.5675,1.72c-3.44,2.75469 -4.8375,6.5575 -4.8375,11.7175c0,7.91469 5.11969,14.405 12.685,16.125c4.58219,11.97281 10.73656,25.71938 19.0275,36.2275c-28.89062,0.26875 -44.11531,2.23063 -48.6975,2.9025c0.52406,-60.33437 12.16094,-97.56969 29.1325,-119.2175c16.74313,-21.36562 38.55219,-28.21875 61.06,-28.7025zM103.2,49.5575c10.32,22.01063 27.47969,42.28781 28.165,43.3225c0.68531,0.68531 1.76031,1.3975 2.795,1.3975c0,0 4.90469,0.06719 6.88,4.1925v8.17c0,4.47469 -8.6,5.4825 -8.6,5.4825c-1.37062,0 -2.76812,1.42438 -3.1175,2.795c-1.72,7.91469 -4.48812,15.45313 -8.2775,22.6825h7.6325c2.75469,-6.19469 5.18688,-12.72531 6.5575,-18.92c2.09625,-0.44344 4.01781,-1.20937 5.805,-2.15v3.87c0,1.89469 1.54531,3.44 3.44,3.44h3.44c0,9.47344 -7.72656,17.2 -17.2,17.2h-28.165c-1.43781,-3.9775 -5.22719,-6.88 -9.675,-6.88h-6.88c-5.65719,0 -10.32,4.66281 -10.32,10.32c0,5.65719 4.66281,10.32 10.32,10.32h6.88c4.44781,0 8.23719,-2.9025 9.675,-6.88h28.165c13.2225,0 24.08,-10.8575 24.08,-24.08v-0.3225c2.31125,-0.48375 4.46125,-1.38406 6.3425,-2.6875c0.36281,1.42438 0.65844,3.1175 1.075,5.2675c1.29,6.65156 2.56656,17.36125 2.795,31.605c-4.48812,-0.68531 -18.97375,-2.53969 -47.085,-2.795c0.98094,-1.15562 1.88125,-2.31125 2.795,-3.5475h-8.9225c-7.22937,8.25063 -16.16531,13.76 -25.8,13.76c-16.51469,0 -30.57031,-16.555 -43.645,-50.955c-0.34937,-1.37062 -1.76031,-2.0425 -2.795,-2.0425c-4.81062,-0.34937 -8.6,-4.4075 -8.6,-9.5675c0,-2.06937 0.34938,-4.87781 1.72,-5.9125c1.37063,-1.03469 4.085,-0.645 4.085,-0.645h1.075c28.55469,0 55.72531,-28.20531 65.36,-46.44zM147.92,86h3.44c5.6975,0 10.32,4.6225 10.32,10.32v10.32c0,2.05594 -0.57781,3.9775 -1.6125,5.59c-0.215,0.22844 -0.38969,0.48375 -0.5375,0.7525c-1.89469,2.43219 -4.86437,3.9775 -8.17,3.9775h-3.44v-17.9525c0.24188,-0.68531 0.28219,-1.505 0,-2.365zM86,141.04h6.88c1.90813,0 3.44,1.53188 3.44,3.44c0,1.90813 -1.53187,3.44 -3.44,3.44h-6.88c-1.90812,0 -3.44,-1.53187 -3.44,-3.44c0,-1.90812 1.53188,-3.44 3.44,-3.44z"></path></g></g></svg>