<svg xmlns="http://www.w3.org/2000/svg" x="0px" y="0px"
width="50" height="50"
viewBox="0 0 172 172"
style=" fill:#000000;"><g fill="none" fill-rule="nonzero" stroke="none" stroke-width="1" stroke-linecap="butt" stroke-linejoin="miter" stroke-miterlimit="10" stroke-dasharray="" stroke-dashoffset="0" font-family="none" font-weight="none" font-size="none" text-anchor="none" style="mix-blend-mode: normal"><path d="M0,172v-172h172v172z" fill="none"></path><g fill="#151515"><path d="M85.94625,10.27297c-1.89722,0.02966 -3.41223,1.58976 -3.38625,3.48703v20.64c-0.01754,1.24059 0.63425,2.39452 1.7058,3.01993c1.07155,0.62541 2.39684,0.62541 3.46839,0c1.07155,-0.62541 1.72335,-1.77935 1.7058,-3.01993v-20.64c0.01273,-0.92983 -0.35149,-1.82522 -1.00967,-2.48214c-0.65819,-0.65692 -1.55427,-1.01942 -2.48408,-1.00489zM13.68609,27.48641c-1.46586,0.0125 -2.76279,0.95247 -3.23089,2.34163c-0.4681,1.38916 -0.00455,2.92236 1.1548,3.81947l17.2,13.76c0.96012,0.76853 2.25735,0.96634 3.40289,0.51891c1.14554,-0.44743 1.96528,-1.47211 2.15034,-2.68793c0.18506,-1.21582 -0.29269,-2.43799 -1.25323,-3.20598l-17.2,-13.76c-0.62551,-0.51591 -1.41313,-0.79431 -2.22391,-0.78609zM158.21313,27.49313c-0.77532,0.0131 -1.52347,0.28774 -2.12313,0.77938l-17.2,13.76c-0.96054,0.768 -1.43829,1.99017 -1.25323,3.20598c0.18506,1.21582 1.0048,2.2405 2.15034,2.68793c1.14554,0.44743 2.44277,0.24961 3.40289,-0.51891l17.2,-13.76c1.16865,-0.90986 1.62383,-2.46555 1.12994,-3.86185c-0.49389,-1.39631 -1.82598,-2.31981 -3.30681,-2.29252zM44.61922,54.99969c-1.23133,0.02809 -2.35371,0.71228 -2.94281,1.79391l-23.28719,30.20078c-0.00673,0.00446 -0.01345,0.00894 -0.02016,0.01344c-0.6885,0.69051 -1.05163,1.64076 -0.9991,2.61445c0.05253,0.97369 0.51578,1.87936 1.27457,2.4918l64.30516,67.91312c0.63825,1.15095 1.87719,1.83693 3.19141,1.76703c0.00448,0.00001 0.00896,0.00001 0.01344,0c0.00896,0.00003 0.01792,0.00003 0.02687,0c1.19003,-0.04876 2.27019,-0.70956 2.85547,-1.74687l64.51344,-67.91313c0.78072,-0.62072 1.25362,-1.5497 1.29617,-2.54619c0.04254,-0.99649 -0.34947,-1.9624 -1.07445,-2.6474c-0.00224,-0.00224 -0.00448,-0.00448 -0.00672,-0.00672l-23.44172,-30.14703c-0.60951,-1.11254 -1.78181,-1.79939 -3.05031,-1.78719c-0.15751,0.00265 -0.31465,0.01612 -0.47031,0.04031h-40.30578c-0.03353,-0.00498 -0.06712,-0.00945 -0.10078,-0.01344c-0.1137,-0.01466 -0.22806,-0.02363 -0.34265,-0.02688c-0.19564,-0.00321 -0.39119,0.01028 -0.58453,0.04031h-40.26547c-0.19334,-0.03004 -0.3889,-0.04352 -0.58453,-0.04031zM50.57203,61.92h28.39344l-16.56172,21.29844zM93.02781,61.92h28.40015l-11.83172,21.29844zM86,64.07672l17.05219,21.92328h-34.10437zM127.76375,64.70156l16.56172,21.29844h-28.39344zM44.24969,64.72844l11.81828,21.27156h-28.21875zM28.84359,92.88h30.6375l17.95922,51.3111zM66.76422,92.88h38.47156l-19.23578,54.95937zM112.5189,92.88h30.82563l-48.81172,51.385z"></path></g></g></svg>