<svg xmlns="http://www.w3.org/2000/svg" x="0px" y="0px"
width="50" height="50"
viewBox="0 0 172 172"
style=" fill:#000000;"><g fill="none" fill-rule="nonzero" stroke="none" stroke-width="1" stroke-linecap="butt" stroke-linejoin="miter" stroke-miterlimit="10" stroke-dasharray="" stroke-dashoffset="0" font-family="none" font-weight="none" font-size="none" text-anchor="none" style="mix-blend-mode: normal"><path d="M0,172v-172h172v172z" fill="none"></path><g fill="#151515"><path d="M9.675,0c-5.28094,0 -9.675,4.39406 -9.675,9.675v17.2c-0.02687,0.215 -0.02687,0.43 0,0.645v110.08c0,1.89469 1.54531,3.44 3.44,3.44h79.12c1.23625,0.01344 2.39188,-0.63156 3.02344,-1.70656c0.61813,-1.075 0.61813,-2.39187 0,-3.46687c-0.63156,-1.075 -1.78719,-1.72 -3.02344,-1.70656h-75.68v-103.2h137.6v55.04c-0.01344,1.23625 0.63156,2.39188 1.70656,3.02344c1.075,0.61813 2.39187,0.61813 3.46687,0c1.075,-0.63156 1.72,-1.78719 1.70656,-3.02344v-58.48c0.02688,-0.215 0.02688,-0.43 0,-0.645v-17.2c0,-5.28094 -4.39406,-9.675 -9.675,-9.675zM9.675,6.88h132.01c1.59906,0 2.795,1.19594 2.795,2.795v14.405h-137.6v-14.405c0,-1.59906 1.19594,-2.795 2.795,-2.795zM24.08,51.6v6.88h13.76v-6.88zM48.16,51.6v6.88h79.12v-6.88zM24.08,68.8v6.88h13.76v-6.88zM48.16,68.8v6.88h79.12v-6.88zM24.08,86v6.88h13.76v-6.88zM48.16,86v6.88h48.16v-6.88zM123.84,89.44c-18.96031,0 -34.4,15.43969 -34.4,34.4c0,18.96031 15.43969,34.4 34.4,34.4c8.23719,0 15.78906,-2.88906 21.715,-7.74l20.5325,20.5325l4.945,-4.945l-20.5325,-20.5325c4.85094,-5.92594 7.74,-13.47781 7.74,-21.715c0,-18.96031 -15.43969,-34.4 -34.4,-34.4zM123.84,96.32c15.23813,0 27.52,12.28188 27.52,27.52c0,15.23813 -12.28187,27.52 -27.52,27.52c-15.23812,0 -27.52,-12.28187 -27.52,-27.52c0,-15.23812 12.28188,-27.52 27.52,-27.52zM24.08,103.2v6.88h13.76v-6.88zM48.16,103.2v6.88h34.4v-6.88z"></path></g></g></svg>